<svg width="62" height="30" viewBox="0 0 62 30" xmlns="http://www.w3.org/2000/svg"><defs><linearGradient x1="50%" y1="0%" x2="50%" y2="100%" id="linearGradient-1"><stop stop-color="#008CCF" offset="0%"/><stop stop-color="#203D8D" offset="100%"/></linearGradient><linearGradient x1="50%" y1="0%" x2="50%" y2="100%" id="linearGradient-2"><stop stop-color="#00A0E0" offset="0%"/><stop stop-color="#203D8D" offset="100%"/></linearGradient></defs><g id="Page-1" fill="none" fill-rule="evenodd"><g id="logo" transform="translate(0 -1)"><path id="Fill-1" fill="url(#linearGradient-1)" d="M9.235 15.677h6.506l2.996 5.194h4.35l-5.742-9.934-2.687-4.65z"/><path id="Path" fill="url(#linearGradient-2)" d="M11.604 1l-5.74 9.936L.12 20.87H16.99l-2.126-3.683H6.62l7.165-12.412z"/><g id="Group-6" transform="translate(0 .97)" fill="#1D1C1B"><path d="M60.66 28.574h.785V27.8h-.784v.774zm.78-3.894l-.07 2.5h-.632l-.07-2.5h.77zm-1.29 1.622h-.057c-.212 0-.398.032-.558.095-.16.062-.284.158-.372.287v1.89h-.692v-2.82h.574l.064.39h.012c.08-.143.193-.255.336-.338.143-.082.314-.124.514-.124.07 0 .13.004.18.012v.608zm-3.554-.083c-.088 0-.165.015-.234.046-.067.033-.126.076-.176.132-.05.055-.088.12-.117.194-.03.073-.05.15-.06.235h1.11c0-.084-.01-.162-.034-.235-.022-.074-.055-.14-.1-.194-.042-.056-.097-.1-.162-.132-.065-.03-.14-.047-.228-.047zm.276 1.87c.134 0 .274-.012.42-.038.146-.027.293-.066.442-.116v.548c-.088.04-.226.076-.41.11-.184.035-.376.052-.574.052-.2 0-.39-.026-.57-.078-.18-.05-.336-.134-.47-.248-.135-.114-.24-.263-.32-.445-.08-.183-.12-.404-.12-.664 0-.256.038-.48.112-.672.074-.192.173-.35.298-.477.124-.126.266-.22.427-.284.16-.062.326-.094.497-.094.18 0 .344.027.495.082.15.053.28.14.39.255.11.115.195.264.256.447.06.184.092.4.092.65-.002.097-.005.18-.01.247h-1.85c.01.13.04.242.088.336.05.092.11.168.19.226.08.057.17.1.275.126.107.026.22.04.342.04zm-2.94-2.987h.728v-.745h-.728v.745zm.018 3.472h.692v-2.82h-.692v2.82zm-1.293-.82c0-.06-.017-.11-.05-.15-.035-.037-.08-.07-.137-.096-.056-.027-.12-.05-.193-.07-.074-.018-.15-.038-.23-.057-.1-.028-.197-.06-.29-.096-.093-.036-.176-.082-.246-.14-.07-.058-.127-.132-.168-.22-.042-.09-.063-.196-.063-.325 0-.157.027-.294.083-.41.057-.114.134-.21.23-.285.096-.077.208-.133.335-.17.127-.036.26-.055.404-.055.173 0 .335.014.486.042.15.028.288.064.41.108v.56c-.063-.02-.13-.04-.203-.058-.07-.018-.142-.034-.214-.047-.073-.013-.144-.023-.217-.03-.07-.01-.14-.014-.204-.014-.082 0-.15.008-.207.023-.056.015-.102.036-.137.062-.035.026-.06.056-.076.09-.015.033-.023.07-.023.106 0 .064.017.116.05.157.035.042.082.075.142.1.06.025.122.046.188.062.065.017.13.033.192.05.097.022.193.05.29.083.097.033.185.08.262.138.078.06.14.135.19.23.05.094.075.214.075.36 0 .16-.03.298-.09.416s-.144.216-.25.295c-.11.078-.238.137-.39.174-.15.037-.314.056-.495.056-.18 0-.34-.014-.482-.042-.142-.028-.26-.063-.354-.106v-.556c.152.056.29.094.42.114.128.02.247.03.358.03.085 0 .166-.007.24-.02.072-.012.136-.03.19-.06.052-.026.095-.06.126-.1.03-.043.047-.093.047-.15zm-2.712-.383c-.065-.016-.14-.03-.226-.043-.087-.014-.174-.02-.26-.02-.17 0-.302.034-.4.1-.098.068-.147.17-.147.31 0 .062.01.118.034.166.022.047.052.087.09.118.037.03.082.055.132.07.05.015.103.023.16.023.068 0 .135-.008.197-.027.06-.018.12-.042.17-.07.053-.028.1-.06.142-.094.04-.036.076-.07.105-.103v-.43zm.057.902h-.012c-.04.04-.085.083-.14.126-.054.042-.116.083-.186.12-.07.04-.147.068-.233.09-.084.024-.177.036-.276.036-.134 0-.26-.02-.376-.063-.117-.04-.217-.102-.3-.18-.083-.08-.15-.173-.197-.286-.046-.11-.07-.236-.07-.373 0-.153.027-.288.082-.41.056-.12.133-.22.232-.304.1-.083.217-.147.356-.19.137-.045.29-.067.457-.067.122 0 .234.008.338.023.102.016.193.035.27.056v-.113c0-.067-.01-.13-.034-.19-.02-.063-.056-.117-.106-.164-.05-.048-.114-.085-.194-.114-.08-.027-.177-.04-.29-.04-.14 0-.28.013-.42.044-.14.03-.292.078-.455.14v-.54c.142-.06.293-.108.45-.14.162-.035.328-.052.502-.054.206 0 .387.025.54.076.155.05.286.12.39.208.103.09.182.193.233.313.05.12.077.25.077.392v1.064c0 .187.002.346.006.48s.008.253.012.358h-.623l-.03-.3zM46.46 26.22c-.088 0-.166.015-.234.046-.068.033-.126.076-.176.132-.05.055-.09.12-.117.194-.03.073-.05.15-.06.235h1.11c0-.084-.01-.162-.034-.235-.022-.074-.055-.14-.1-.194-.043-.056-.097-.1-.162-.132-.066-.03-.14-.047-.23-.047zm.276 1.87c.134 0 .274-.012.42-.038.145-.027.292-.066.44-.116v.548c-.087.04-.224.076-.41.11-.183.035-.375.052-.573.052-.2 0-.39-.026-.57-.078-.178-.05-.335-.134-.47-.248-.134-.114-.24-.263-.32-.445-.08-.183-.12-.404-.12-.664 0-.256.038-.48.113-.672.073-.192.173-.35.297-.477.124-.126.266-.22.427-.284.16-.062.326-.094.497-.094.18 0 .344.027.495.082.15.053.282.14.39.255.11.115.197.264.257.447.06.184.092.4.092.65-.002.097-.005.18-.01.247h-1.85c.01.13.04.242.088.336.048.092.11.168.19.226.08.057.17.1.275.126.105.026.218.04.34.04zm-4.563-1.87c-.087 0-.165.015-.233.046-.068.033-.126.076-.176.132-.05.055-.09.12-.117.194-.03.073-.05.15-.06.235h1.11c0-.084-.01-.162-.034-.235-.02-.074-.054-.14-.098-.194-.044-.056-.098-.1-.163-.132-.066-.03-.14-.047-.23-.047zm.277 1.87c.134 0 .274-.012.42-.038.145-.027.292-.066.44-.116v.548c-.087.04-.224.076-.41.11-.183.035-.375.052-.573.052-.2 0-.39-.026-.57-.078-.178-.05-.335-.134-.47-.248-.135-.114-.24-.263-.32-.445-.08-.183-.12-.404-.12-.664 0-.256.038-.48.113-.672.073-.192.173-.35.297-.477.124-.126.266-.22.427-.284.16-.062.326-.094.497-.094.18 0 .345.027.496.082.15.053.282.14.39.255.11.115.197.264.257.447.062.184.093.4.093.65-.002.097-.005.18-.01.247h-1.85c.01.13.04.242.087.336.05.092.112.168.19.226.08.057.17.1.276.126.104.026.217.04.34.04zm-1.643-3.17c-.076-.02-.155-.036-.235-.048-.08-.013-.156-.02-.228-.02-.078 0-.147.01-.207.03-.06.017-.112.048-.153.09-.042.043-.073.098-.095.165-.022.07-.033.15-.033.248v.37h.784v.565h-.783v2.254h-.692V26.32h-.477v-.566h.477v-.335c0-.2.028-.37.084-.512.055-.142.13-.26.23-.352.1-.093.216-.16.35-.204.135-.044.28-.066.438-.066.097 0 .194.008.29.025.096.017.18.038.25.06v.55zm-3.255.183h.728v-.745h-.728v.745zm.018 3.472h.692v-2.82h-.692v2.82zm-1.494 0h.692v-4.217h-.692v4.216zm-3.134-2.356c-.087 0-.165.015-.233.046-.07.033-.127.076-.177.132-.05.055-.088.12-.117.194-.03.073-.05.15-.06.235h1.11c0-.084-.01-.162-.034-.235-.02-.074-.054-.14-.098-.194-.044-.056-.098-.1-.163-.132-.065-.03-.14-.047-.228-.047zm.277 1.87c.133 0 .273-.012.418-.038.146-.027.293-.066.442-.116v.548c-.088.04-.225.076-.41.11-.184.035-.376.052-.574.052-.2 0-.39-.026-.57-.078-.178-.05-.335-.134-.47-.248-.135-.114-.24-.263-.32-.445-.08-.183-.12-.404-.12-.664 0-.256.038-.48.113-.672.072-.192.172-.35.296-.477.124-.126.266-.22.427-.284.16-.062.326-.094.497-.094.18 0 .344.027.495.082.15.053.282.14.39.255.11.115.197.264.257.447.062.184.093.4.093.65-.002.097-.005.18-.01.247h-1.85c.01.13.04.242.088.336.048.092.11.168.19.226.08.057.17.1.275.126.105.026.218.04.34.04zm-4.392-3.732h.692v2.54h.015l1.074-1.144h.852l-1.237 1.325 1.246 1.494h-.835l-1.103-1.313h-.012v1.314h-.692v-4.216zm-1.49 3.014c-.065-.016-.14-.03-.225-.043-.086-.014-.172-.02-.26-.02-.168 0-.3.034-.398.1-.1.068-.148.17-.148.31 0 .062.01.118.034.166.023.047.053.087.09.118.04.03.083.055.133.07.05.015.104.023.16.023.07 0 .136-.008.198-.027.062-.018.12-.042.172-.07.053-.028.1-.06.14-.094.043-.036.078-.07.107-.103v-.43zm.058.902h-.012c-.04.04-.084.083-.14.126-.054.042-.116.083-.186.12-.07.04-.147.068-.233.09-.085.024-.178.036-.277.036-.134 0-.26-.02-.376-.063-.117-.04-.216-.102-.3-.18-.083-.08-.15-.173-.197-.286-.047-.11-.07-.236-.07-.373 0-.153.027-.288.08-.41.057-.12.134-.22.233-.304.1-.083.217-.147.356-.19.137-.045.29-.067.457-.067.123 0 .235.008.34.023.1.016.192.035.27.056v-.113c0-.067-.012-.13-.034-.19-.023-.063-.058-.117-.108-.164-.05-.048-.114-.085-.194-.114-.08-.027-.177-.04-.29-.04-.14 0-.28.013-.42.044-.14.03-.292.078-.455.14v-.54c.142-.06.292-.108.45-.14.16-.035.327-.052.502-.054.205 0 .386.025.54.076.154.05.285.12.388.208.104.09.183.193.234.313.05.12.077.25.077.392v1.064c0 .187.003.346.007.48s.008.253.012.358h-.624l-.03-.3zm-3.11-1.42c0-.06-.002-.115-.006-.168-.004-.053-.01-.098-.02-.137-.022-.087-.064-.155-.125-.208-.063-.053-.15-.08-.263-.082-.06 0-.122.01-.187.026-.063.018-.127.043-.19.075-.063.034-.124.073-.18.118-.058.046-.11.097-.157.153v1.944h-.69v-1.72c0-.06-.003-.115-.007-.168-.003-.053-.01-.098-.02-.137-.02-.087-.062-.155-.123-.208-.06-.053-.15-.08-.264-.082-.06 0-.122.01-.186.026-.064.018-.128.043-.19.075-.064.034-.125.073-.18.118-.06.046-.11.097-.158.153v1.944h-.692v-2.82h.572l.064.39h.012c.04-.057.092-.114.154-.17.063-.057.133-.106.21-.15.08-.042.167-.076.26-.102.096-.027.195-.04.3-.04.186 0 .354.042.503.124.148.083.262.21.34.386h.01c.056-.075.116-.145.183-.207.068-.062.142-.115.224-.16.08-.045.17-.08.263-.105.094-.025.195-.038.302-.038.202.002.372.044.508.126.137.083.243.196.317.34.02.037.036.078.05.12.013.044.024.094.033.148.01.054.015.115.018.18.005.067.007.143.007.228v1.75h-.69v-1.72zm-5.402 1.716c-.078.023-.17.042-.278.056-.108.013-.21.02-.302.02-.236 0-.43-.04-.58-.115-.153-.076-.26-.186-.32-.33-.045-.103-.068-.242-.068-.42v-1.46h-.527v-.566h.526v-.787h.692v.787h.815v.566h-.815v1.372c0 .108.016.19.05.24.057.09.173.136.345.136.08 0 .16-.006.238-.02.08-.012.154-.028.224-.047v.57zm-3.002-.815c0-.06-.017-.11-.05-.15-.035-.037-.08-.07-.137-.096-.056-.027-.12-.05-.193-.07-.074-.018-.15-.038-.23-.057-.1-.028-.197-.06-.29-.096-.093-.036-.176-.082-.246-.14-.07-.058-.128-.132-.17-.22-.04-.09-.062-.196-.062-.325 0-.157.028-.294.085-.41.055-.114.132-.21.227-.285.097-.077.21-.133.336-.17.127-.036.262-.055.404-.055.173 0 .335.014.486.042.15.028.288.064.41.108v.56c-.063-.02-.13-.04-.202-.058-.07-.018-.142-.034-.214-.047-.074-.013-.145-.023-.218-.03-.07-.01-.14-.014-.204-.014-.08 0-.15.008-.206.023-.056.015-.102.036-.137.062-.034.026-.06.056-.075.09-.015.033-.023.07-.023.106 0 .064.017.116.05.157.034.042.082.075.142.1.06.025.123.046.19.062.064.017.13.033.19.05.098.022.194.05.292.083.096.033.184.08.26.138.08.06.142.135.19.23.05.094.076.214.076.36 0 .16-.03.298-.09.416s-.144.216-.25.295c-.11.078-.238.137-.39.174-.15.037-.314.056-.495.056-.18 0-.34-.014-.482-.042-.142-.028-.26-.063-.354-.106v-.556c.153.056.292.094.42.114.13.02.248.03.36.03.084 0 .164-.007.238-.02.073-.012.137-.03.19-.06.054-.026.096-.06.127-.1.03-.043.047-.093.047-.15zm-3.25.89c-.284 0-.52-.047-.705-.143-.187-.096-.33-.226-.423-.39-.05-.086-.088-.182-.112-.287-.025-.104-.037-.22-.037-.35v-1.72h.692V27.4c0 .095.007.177.02.246.014.07.035.128.06.18.048.083.114.147.2.19.085.04.186.06.305.06.124 0 .23-.02.317-.068.088-.047.155-.117.2-.213.044-.09.066-.218.066-.38v-1.663h.692v1.722c0 .23-.04.423-.12.58-.045.088-.102.17-.173.242-.07.073-.155.135-.25.186-.097.052-.206.092-.327.12-.12.028-.257.042-.406.042zm-2.73-3.542h.728v-.745h-.728v.745zm.71 3.84c0 .265-.042.468-.126.612-.087.15-.216.263-.385.336-.168.073-.368.11-.6.11-.102 0-.196-.006-.278-.018-.083-.01-.16-.028-.234-.05v-.565c.062.017.132.033.208.045.077.014.15.02.22.02.093 0 .175-.01.245-.03.07-.022.127-.06.17-.11.032-.04.056-.093.07-.16.013-.07.02-.15.02-.245v-3.133h.69v3.19zM6.707 26.22c-.087 0-.165.015-.233.046-.068.033-.127.076-.176.132-.05.055-.09.12-.118.194-.03.073-.05.15-.06.235h1.11c0-.084-.01-.162-.034-.235-.022-.074-.054-.14-.098-.194-.044-.056-.098-.1-.163-.132-.065-.03-.14-.047-.23-.047zm.277 1.87c.134 0 .274-.012.42-.038.145-.027.292-.066.442-.116v.548c-.09.04-.226.076-.41.11-.185.035-.377.052-.575.052-.2 0-.39-.026-.57-.078-.178-.05-.335-.134-.47-.248-.135-.114-.24-.263-.32-.445-.08-.183-.12-.404-.12-.664 0-.256.038-.48.113-.672.073-.192.173-.35.297-.477.124-.126.266-.22.427-.284.16-.062.325-.094.496-.094.18 0 .344.027.495.082.15.053.282.14.392.255.11.115.196.264.256.447.062.184.093.4.093.65 0 .097-.004.18-.008.247h-1.85c.01.13.038.242.087.336.047.092.11.168.19.226.078.057.17.1.274.126.105.026.218.04.34.04zm-4.338-2.385c-.076.363-.163.738-.262 1.123l-.437 1.746h-.71L0 24.68h.76l.47 1.552c.14.487.255.927.342 1.32h.017c.085-.422.184-.856.297-1.3l.4-1.572h.736l.4 1.57c.113.442.213.876.298 1.303h.018c.108-.465.222-.906.344-1.32l.47-1.553h.76l-1.24 3.894h-.71l-.436-1.746c-.1-.393-.187-.768-.262-1.123h-.017z" id="Fill-3"/><path d="M56.404 13.4c-.79 0-1.452.276-1.988.826-.538.55-.807 1.25-.807 2.1 0 .946.337 1.694 1.014 2.245.527.432 1.13.646 1.81.646.77 0 1.424-.28 1.965-.838.54-.558.81-1.246.81-2.064 0-.814-.27-1.503-.817-2.068-.545-.564-1.208-.846-1.99-.846zm.024-1.597c1.21 0 2.25.44 3.12 1.315.873.876 1.308 1.945 1.308 3.204 0 1.25-.43 2.306-1.29 3.17-.858.864-1.9 1.297-3.126 1.297-1.285 0-2.352-.445-3.2-1.333-.85-.888-1.276-1.943-1.276-3.165 0-.816.2-1.57.595-2.256.394-.686.938-1.23 1.63-1.63.692-.402 1.44-.603 2.238-.603zm-9.617.215h4.732v1.61h-1.56v6.947h-1.658v-6.948H46.81v-1.61zm-6.598 0h1.633v5.536c0 .476.042.814.125 1.01.084.2.22.356.414.476.192.117.425.176.695.176.287 0 .533-.065.742-.2.208-.13.35-.297.43-.5.08-.204.12-.593.12-1.167v-5.332h1.633v5.1c0 .863-.048 1.46-.145 1.792-.097.334-.282.656-.556.966-.273.31-.59.54-.946.69-.355.148-.77.223-1.244.223-.62 0-1.16-.144-1.618-.428-.46-.286-.79-.64-.987-1.07-.198-.43-.298-1.152-.298-2.174v-5.1zm-5.06 2.274l-1.16 2.946h2.314l-1.154-2.946zm-.822-2.274h1.64l3.293 8.557H37.57L36.9 18.81h-3.508l-.684 1.765h-1.694l3.314-8.557zM56.563.546h4.732v1.61h-1.562v6.948h-1.656v-6.95h-1.514V.547zm-5.094 0h4.67v1.597h-3.05V3.68h3.05v1.574h-3.05v2.252h3.05v1.598h-4.67V.546zm-7.136 0h1.645v2.96l2.315-2.96h1.965l-2.99 3.82 3.28 4.738h-1.933L45.98 5.29v3.814h-1.646V.546zm-1.46 1.164l-1.207 1.065c-.423-.588-.854-.882-1.293-.882-.214 0-.39.057-.524.17-.137.116-.205.245-.205.388 0 .144.048.28.145.408.133.17.532.537 1.198 1.1.622.52 1 .847 1.132.982.33.334.564.65.703.955.137.306.207.638.207.997 0 .704-.243 1.282-.73 1.74-.484.457-1.117.686-1.9.686-.61 0-1.14-.15-1.593-.447-.453-.3-.843-.768-1.164-1.407l1.372-.827c.414.755.888 1.132 1.425 1.132.28 0 .516-.08.707-.244.19-.163.286-.35.286-.564 0-.193-.072-.387-.217-.582-.143-.193-.46-.49-.95-.89-.935-.76-1.537-1.345-1.81-1.758-.27-.413-.408-.824-.408-1.235 0-.594.226-1.103.677-1.526C39.178.543 39.735.33 40.4.33c.427 0 .834.1 1.22.295.387.2.804.558 1.255 1.083zm-9.613 1.11L32.1 5.767h2.315L33.26 2.82zM32.44.547h1.64l3.293 8.558H35.68l-.67-1.764h-3.507l-.683 1.764h-1.694L32.44.546z" id="Fill-5"/></g></g></g></svg>