<svg width="27" height="27" viewBox="0 0 27 27" xmlns="http://www.w3.org/2000/svg" xmlns:xlink="http://www.w3.org/1999/xlink"><defs><path id="path-1" d="M26.96 27.016V0H0v27.016h26.96z"/></defs><g id="Page-1" fill="none" fill-rule="evenodd"><g id="radia"><mask id="mask-2" fill="#fff"><use xlink:href="#path-1"/></mask><path d="M24.287 23.448c-1.127-1.623-6.38-9.305-6.38-9.305 1.544-.595 2.756-1.483 3.637-2.662.88-1.177 1.32-2.484 1.32-3.92 0-1.083-.21-2.072-.63-2.966-.42-.894-1.03-1.666-1.827-2.316-.8-.65-1.768-1.15-2.906-1.504C13.71-.4 8.315.274 4.37.26 3.08.253 2.16.227.938.057.744.03.38-.086.18.116-.07.366-.04.603.146.88c.503.753.86 1.28 1.357 2.03.51.77 1.41.898 2.25.956 1.142.08 2.282.08 3.425.056.674-.013 1.347-.04 2.02-.07 1.532-.07 3.086-.157 4.61.077 2.02.308 3.7 1.616 3.522 3.82-.11 1.368-.63 2.624-1.78 3.406-1.452.987-3.225 1.027-4.916 1.027-.97 0-1.026-.037-2.06-.143-.24-.025-.47.032-.552.265-.102.284-.022.368.178.66.17.25 1.044 1.56 1.308 1.944.236.344.665.495 1.045.608 2.356.697 3.75 2.26 5.063 4.254.67 1.016 1.302 2.054 1.994 3.055.383.554.783 1.096 1.214 1.613 1 1.2 2.318 1.737 3.792 2.134 1.177.317 2.475.418 3.514.44 1.09.025.93-.668.517-.98-.943-.714-1.577-1.457-2.36-2.586" id="Fill-1" fill="#FEFEFE" mask="url(#mask-2)"/></g></g></svg>