<svg width="88" height="88" viewBox="0 0 88 88" xmlns="http://www.w3.org/2000/svg"><g id="Page-1" fill="none" fill-rule="evenodd"><g id="zoom" fill="#FFF"><path d="M36 64C20.536 64 8 51.464 8 36S20.536 8 36 8s28 12.536 28 28-12.536 28-28 28m50.83 17.17L64.12 58.465C69.048 52.307 72 44.5 72 36 72 16.118 55.882 0 36 0S0 16.118 0 36s16.118 36 36 36c8.5 0 16.306-2.953 22.464-7.88l22.708 22.71c1.562 1.56 4.095 1.56 5.657 0 1.56-1.563 1.56-4.097 0-5.66zM48 32h-8v-8c0-2.21-1.79-4-4-4s-4 1.79-4 4v8h-8c-2.21 0-4 1.79-4 4s1.79 4 4 4h8v8c0 2.21 1.79 4 4 4s4-1.79 4-4v-8h8c2.21 0 4-1.79 4-4s-1.79-4-4-4z" id="Combined-Shape"/></g></g></svg>