<?xml version="1.0" encoding="UTF-8" standalone="no"?>
<svg width="62px" height="30px" viewBox="0 0 62 30" version="1.1" xmlns="http://www.w3.org/2000/svg" xmlns:xlink="http://www.w3.org/1999/xlink">
    <!-- Generator: Sketch 3.7.2 (28276) - http://www.bohemiancoding.com/sketch -->
    <title>logo</title>
    <desc>Created with Sketch.</desc>
    <defs>
        <linearGradient x1="50%" y1="0%" x2="50%" y2="100%" id="linearGradient-1">
            <stop stop-color="#008CCF" offset="0%"></stop>
            <stop stop-color="#203D8D" offset="100%"></stop>
        </linearGradient>
        <linearGradient x1="50%" y1="0%" x2="50%" y2="100%" id="linearGradient-2">
            <stop stop-color="#00A0E0" offset="0%"></stop>
            <stop stop-color="#203D8D" offset="100%"></stop>
        </linearGradient>
    </defs>
    <g id="Page-1" stroke="none" stroke-width="1" fill="none" fill-rule="evenodd">
        <g id="logo" transform="translate(0.000000, -1.000000)">
            <polygon id="Fill-1" fill="url(#linearGradient-1)" points="9.235 15.6769 15.741 15.6769 18.736 20.8709 23.085 20.8709 17.344 10.9359 14.657 6.2859"></polygon>
            <polygon id="Path" fill="url(#linearGradient-2)" points="11.604 0.9999 5.863 10.9359 0.122 20.8709 11.604 20.8709 16.991 20.8709 14.864 17.1869 8.363 17.1869 6.627 17.1869 6.62 17.1869 13.785 4.7749"></polygon>
            <g id="Group-6" transform="translate(0.000000, 0.969900)" fill="#1D1C1B">
                <path d="M60.661,28.574 L61.445,28.574 L61.445,27.799 L60.661,27.799 L60.661,28.574 Z M61.439,24.68 L61.369,27.179 L60.738,27.179 L60.667,24.68 L61.439,24.68 Z M60.15,26.302 L60.093,26.302 C59.881,26.302 59.695,26.334 59.535,26.397 C59.374,26.459 59.251,26.555 59.163,26.684 L59.163,28.574 L58.471,28.574 L58.471,25.754 L59.044,25.754 L59.108,26.145 L59.12,26.145 C59.201,26.001 59.313,25.889 59.456,25.806 C59.599,25.724 59.77,25.682 59.97,25.682 C60.04,25.682 60.1,25.686 60.15,25.694 L60.15,26.302 Z M56.596,26.219 C56.508,26.219 56.431,26.235 56.362,26.266 C56.295,26.299 56.236,26.342 56.186,26.398 C56.137,26.453 56.098,26.518 56.069,26.592 C56.039,26.665 56.02,26.743 56.01,26.827 L57.12,26.827 C57.12,26.743 57.109,26.665 57.086,26.592 C57.064,26.518 57.031,26.453 56.987,26.398 C56.944,26.342 56.889,26.299 56.824,26.266 C56.759,26.235 56.683,26.219 56.596,26.219 L56.596,26.219 Z M56.872,28.091 C57.006,28.091 57.146,28.078 57.292,28.052 C57.438,28.025 57.585,27.986 57.734,27.936 L57.734,28.484 C57.646,28.523 57.508,28.56 57.323,28.594 C57.14,28.629 56.948,28.646 56.75,28.646 C56.55,28.646 56.36,28.62 56.18,28.568 C56.001,28.518 55.844,28.434 55.709,28.32 C55.575,28.206 55.469,28.057 55.389,27.875 C55.311,27.692 55.271,27.471 55.271,27.211 C55.271,26.954 55.308,26.731 55.382,26.538 C55.456,26.346 55.555,26.187 55.68,26.061 C55.804,25.934 55.946,25.84 56.107,25.776 C56.267,25.714 56.433,25.682 56.604,25.682 C56.783,25.682 56.948,25.709 57.099,25.764 C57.249,25.817 57.38,25.903 57.489,26.019 C57.6,26.135 57.685,26.284 57.746,26.467 C57.807,26.651 57.838,26.867 57.838,27.117 C57.836,27.214 57.833,27.296 57.829,27.364 L55.979,27.364 C55.988,27.495 56.017,27.606 56.066,27.7 C56.115,27.792 56.177,27.868 56.257,27.926 C56.335,27.983 56.427,28.026 56.531,28.052 C56.637,28.078 56.75,28.091 56.872,28.091 L56.872,28.091 Z M53.932,25.103 L54.66,25.103 L54.66,24.358 L53.932,24.358 L53.932,25.103 Z M53.95,28.575 L54.642,28.575 L54.642,25.754 L53.95,25.754 L53.95,28.575 Z M52.657,27.755 C52.657,27.695 52.64,27.645 52.606,27.606 C52.572,27.568 52.527,27.536 52.47,27.509 C52.414,27.483 52.35,27.46 52.277,27.44 C52.203,27.422 52.128,27.402 52.048,27.383 C51.947,27.355 51.85,27.324 51.757,27.287 C51.664,27.251 51.581,27.205 51.511,27.146 C51.44,27.089 51.383,27.015 51.342,26.926 C51.3,26.838 51.279,26.731 51.279,26.602 C51.279,26.445 51.307,26.308 51.363,26.193 C51.42,26.078 51.497,25.982 51.592,25.907 C51.689,25.83 51.801,25.774 51.928,25.738 C52.055,25.701 52.189,25.682 52.332,25.682 C52.505,25.682 52.667,25.696 52.818,25.724 C52.969,25.752 53.106,25.788 53.228,25.832 L53.228,26.392 C53.165,26.371 53.097,26.352 53.025,26.334 C52.955,26.316 52.883,26.3 52.811,26.287 C52.737,26.274 52.666,26.264 52.593,26.256 C52.522,26.247 52.454,26.243 52.389,26.243 C52.308,26.243 52.239,26.251 52.183,26.266 C52.127,26.281 52.081,26.302 52.046,26.328 C52.011,26.354 51.986,26.384 51.97,26.418 C51.955,26.451 51.947,26.487 51.947,26.524 C51.947,26.588 51.964,26.64 51.998,26.681 C52.032,26.722 52.079,26.755 52.139,26.779 C52.199,26.805 52.262,26.826 52.328,26.842 C52.393,26.859 52.458,26.875 52.52,26.891 C52.617,26.914 52.713,26.941 52.811,26.975 C52.907,27.008 52.995,27.054 53.072,27.113 C53.15,27.172 53.213,27.248 53.262,27.343 C53.312,27.437 53.337,27.557 53.337,27.703 C53.337,27.862 53.307,28.001 53.246,28.119 C53.187,28.238 53.103,28.336 52.996,28.415 C52.887,28.493 52.759,28.552 52.608,28.589 C52.458,28.627 52.293,28.646 52.112,28.646 C51.933,28.646 51.773,28.632 51.63,28.604 C51.488,28.576 51.369,28.541 51.276,28.498 L51.276,27.942 C51.428,27.998 51.567,28.036 51.695,28.056 C51.824,28.076 51.943,28.085 52.054,28.085 C52.139,28.085 52.22,28.079 52.293,28.066 C52.366,28.054 52.43,28.035 52.484,28.007 C52.536,27.98 52.579,27.946 52.61,27.905 C52.641,27.863 52.657,27.813 52.657,27.755 L52.657,27.755 Z M49.945,27.372 C49.88,27.356 49.804,27.342 49.719,27.329 C49.633,27.316 49.546,27.31 49.46,27.31 C49.291,27.31 49.158,27.344 49.061,27.411 C48.962,27.478 48.913,27.581 48.913,27.719 C48.913,27.782 48.924,27.838 48.947,27.886 C48.969,27.933 48.999,27.973 49.037,28.004 C49.074,28.035 49.119,28.059 49.169,28.075 C49.22,28.089 49.273,28.097 49.329,28.097 C49.398,28.097 49.465,28.089 49.527,28.07 C49.588,28.052 49.646,28.028 49.698,28 C49.75,27.972 49.797,27.94 49.839,27.906 C49.881,27.87 49.916,27.836 49.945,27.803 L49.945,27.372 Z M50.002,28.274 L49.99,28.274 C49.951,28.315 49.905,28.357 49.851,28.4 C49.796,28.442 49.734,28.483 49.664,28.521 C49.594,28.559 49.517,28.588 49.431,28.611 C49.346,28.634 49.253,28.646 49.154,28.646 C49.02,28.646 48.895,28.625 48.778,28.583 C48.661,28.542 48.561,28.481 48.478,28.403 C48.395,28.324 48.329,28.23 48.281,28.117 C48.234,28.006 48.21,27.881 48.21,27.744 C48.21,27.591 48.237,27.456 48.292,27.335 C48.348,27.215 48.425,27.113 48.524,27.03 C48.623,26.947 48.741,26.883 48.88,26.839 C49.017,26.795 49.17,26.773 49.337,26.773 C49.459,26.773 49.571,26.781 49.675,26.796 C49.777,26.812 49.868,26.831 49.945,26.852 L49.945,26.739 C49.945,26.673 49.934,26.609 49.911,26.549 C49.889,26.487 49.854,26.433 49.804,26.386 C49.754,26.338 49.69,26.301 49.61,26.272 C49.531,26.245 49.433,26.231 49.319,26.231 C49.18,26.231 49.04,26.245 48.9,26.276 C48.76,26.307 48.608,26.354 48.445,26.416 L48.445,25.877 C48.587,25.815 48.738,25.768 48.896,25.735 C49.057,25.701 49.223,25.684 49.397,25.682 C49.603,25.682 49.784,25.707 49.938,25.758 C50.092,25.808 50.223,25.878 50.326,25.966 C50.43,26.055 50.509,26.159 50.56,26.279 C50.611,26.4 50.637,26.531 50.637,26.672 L50.637,27.736 C50.637,27.923 50.639,28.082 50.643,28.217 C50.647,28.35 50.651,28.469 50.655,28.574 L50.032,28.574 L50.002,28.274 Z M46.459,26.219 C46.372,26.219 46.294,26.235 46.226,26.266 C46.158,26.299 46.1,26.342 46.05,26.398 C46,26.453 45.961,26.518 45.933,26.592 C45.903,26.665 45.884,26.743 45.874,26.827 L46.983,26.827 C46.983,26.743 46.972,26.665 46.949,26.592 C46.928,26.518 46.895,26.453 46.851,26.398 C46.807,26.342 46.753,26.299 46.688,26.266 C46.622,26.235 46.547,26.219 46.459,26.219 L46.459,26.219 Z M46.736,28.091 C46.87,28.091 47.01,28.078 47.155,28.052 C47.301,28.025 47.448,27.986 47.597,27.936 L47.597,28.484 C47.509,28.523 47.372,28.56 47.187,28.594 C47.003,28.629 46.811,28.646 46.613,28.646 C46.414,28.646 46.224,28.62 46.044,28.568 C45.865,28.518 45.708,28.434 45.573,28.32 C45.439,28.206 45.332,28.057 45.253,27.875 C45.174,27.692 45.134,27.471 45.134,27.211 C45.134,26.954 45.171,26.731 45.246,26.538 C45.319,26.346 45.419,26.187 45.543,26.061 C45.667,25.934 45.809,25.84 45.97,25.776 C46.13,25.714 46.296,25.682 46.467,25.682 C46.646,25.682 46.811,25.709 46.962,25.764 C47.112,25.817 47.244,25.903 47.353,26.019 C47.463,26.135 47.549,26.284 47.609,26.467 C47.671,26.651 47.702,26.867 47.702,27.117 C47.7,27.214 47.697,27.296 47.693,27.364 L45.842,27.364 C45.852,27.495 45.881,27.606 45.93,27.7 C45.978,27.792 46.041,27.868 46.12,27.926 C46.199,27.983 46.29,28.026 46.395,28.052 C46.5,28.078 46.613,28.091 46.736,28.091 L46.736,28.091 Z M42.173,26.219 C42.086,26.219 42.008,26.235 41.94,26.266 C41.872,26.299 41.814,26.342 41.764,26.398 C41.714,26.453 41.675,26.518 41.647,26.592 C41.617,26.665 41.598,26.743 41.588,26.827 L42.697,26.827 C42.697,26.743 42.686,26.665 42.663,26.592 C42.642,26.518 42.609,26.453 42.565,26.398 C42.521,26.342 42.467,26.299 42.402,26.266 C42.336,26.235 42.261,26.219 42.173,26.219 L42.173,26.219 Z M42.45,28.091 C42.584,28.091 42.724,28.078 42.869,28.052 C43.015,28.025 43.162,27.986 43.311,27.936 L43.311,28.484 C43.223,28.523 43.086,28.56 42.901,28.594 C42.717,28.629 42.525,28.646 42.327,28.646 C42.128,28.646 41.938,28.62 41.758,28.568 C41.579,28.518 41.422,28.434 41.287,28.32 C41.152,28.206 41.046,28.057 40.967,27.875 C40.888,27.692 40.848,27.471 40.848,27.211 C40.848,26.954 40.885,26.731 40.96,26.538 C41.033,26.346 41.133,26.187 41.257,26.061 C41.381,25.934 41.523,25.84 41.684,25.776 C41.844,25.714 42.01,25.682 42.181,25.682 C42.36,25.682 42.525,25.709 42.676,25.764 C42.826,25.817 42.958,25.903 43.067,26.019 C43.177,26.135 43.263,26.284 43.323,26.467 C43.385,26.651 43.416,26.867 43.416,27.117 C43.414,27.214 43.411,27.296 43.407,27.364 L41.556,27.364 C41.566,27.495 41.595,27.606 41.643,27.7 C41.692,27.792 41.755,27.868 41.834,27.926 C41.913,27.983 42.004,28.026 42.109,28.052 C42.214,28.078 42.327,28.091 42.45,28.091 L42.45,28.091 Z M40.807,24.919 C40.731,24.9 40.652,24.884 40.572,24.872 C40.492,24.859 40.416,24.853 40.344,24.853 C40.266,24.853 40.197,24.862 40.137,24.881 C40.077,24.899 40.025,24.93 39.984,24.973 C39.942,25.015 39.911,25.07 39.889,25.137 C39.868,25.206 39.857,25.287 39.857,25.385 L39.857,25.754 L40.641,25.754 L40.641,26.32 L39.857,26.32 L39.857,28.574 L39.165,28.574 L39.165,26.32 L38.688,26.32 L38.688,25.754 L39.165,25.754 L39.165,25.419 C39.165,25.221 39.193,25.051 39.249,24.908 C39.305,24.766 39.381,24.648 39.481,24.556 C39.58,24.463 39.696,24.396 39.831,24.352 C39.965,24.308 40.111,24.286 40.268,24.286 C40.365,24.286 40.462,24.294 40.558,24.311 C40.654,24.327 40.737,24.348 40.807,24.371 L40.807,24.919 Z M37.552,25.103 L38.28,25.103 L38.28,24.358 L37.552,24.358 L37.552,25.103 Z M37.57,28.575 L38.262,28.575 L38.262,25.754 L37.57,25.754 L37.57,28.575 Z M36.076,28.574 L36.768,28.574 L36.768,24.358 L36.076,24.358 L36.076,28.574 Z M32.942,26.219 C32.855,26.219 32.777,26.235 32.709,26.266 C32.641,26.299 32.583,26.342 32.533,26.398 C32.483,26.453 32.445,26.518 32.416,26.592 C32.386,26.665 32.367,26.743 32.357,26.827 L33.466,26.827 C33.466,26.743 33.455,26.665 33.432,26.592 C33.411,26.518 33.378,26.453 33.334,26.398 C33.29,26.342 33.236,26.299 33.171,26.266 C33.105,26.235 33.03,26.219 32.942,26.219 L32.942,26.219 Z M33.219,28.091 C33.353,28.091 33.493,28.078 33.638,28.052 C33.784,28.025 33.931,27.986 34.08,27.936 L34.08,28.484 C33.992,28.523 33.855,28.56 33.67,28.594 C33.486,28.629 33.294,28.646 33.096,28.646 C32.897,28.646 32.707,28.62 32.527,28.568 C32.348,28.518 32.191,28.434 32.056,28.32 C31.921,28.206 31.815,28.057 31.736,27.875 C31.657,27.692 31.617,27.471 31.617,27.211 C31.617,26.954 31.654,26.731 31.729,26.538 C31.802,26.346 31.902,26.187 32.026,26.061 C32.15,25.934 32.292,25.84 32.453,25.776 C32.613,25.714 32.779,25.682 32.95,25.682 C33.129,25.682 33.294,25.709 33.445,25.764 C33.595,25.817 33.727,25.903 33.836,26.019 C33.946,26.135 34.032,26.284 34.092,26.467 C34.154,26.651 34.185,26.867 34.185,27.117 C34.183,27.214 34.18,27.296 34.176,27.364 L32.325,27.364 C32.335,27.495 32.364,27.606 32.413,27.7 C32.461,27.792 32.524,27.868 32.604,27.926 C32.682,27.983 32.773,28.026 32.878,28.052 C32.983,28.078 33.096,28.091 33.219,28.091 L33.219,28.091 Z M28.828,24.358 L29.52,24.358 L29.52,26.898 L29.535,26.898 L30.609,25.754 L31.462,25.754 L30.225,27.079 L31.471,28.574 L30.635,28.574 L29.532,27.261 L29.52,27.261 L29.52,28.574 L28.828,28.574 L28.828,24.358 Z M27.339,27.372 C27.273,27.356 27.198,27.342 27.113,27.329 C27.027,27.316 26.941,27.31 26.854,27.31 C26.685,27.31 26.552,27.344 26.455,27.411 C26.356,27.478 26.307,27.581 26.307,27.719 C26.307,27.782 26.318,27.838 26.341,27.886 C26.363,27.933 26.393,27.973 26.431,28.004 C26.469,28.035 26.513,28.059 26.563,28.075 C26.614,28.089 26.667,28.097 26.723,28.097 C26.792,28.097 26.859,28.089 26.921,28.07 C26.982,28.052 27.04,28.028 27.092,28 C27.145,27.972 27.191,27.94 27.233,27.906 C27.275,27.87 27.31,27.836 27.339,27.803 L27.339,27.372 Z M27.396,28.274 L27.384,28.274 C27.345,28.315 27.3,28.357 27.245,28.4 C27.19,28.442 27.128,28.483 27.058,28.521 C26.988,28.559 26.911,28.588 26.825,28.611 C26.74,28.634 26.647,28.646 26.548,28.646 C26.414,28.646 26.288,28.625 26.172,28.583 C26.055,28.542 25.956,28.481 25.872,28.403 C25.789,28.324 25.723,28.23 25.675,28.117 C25.628,28.006 25.604,27.881 25.604,27.744 C25.604,27.591 25.632,27.456 25.686,27.335 C25.742,27.215 25.819,27.113 25.918,27.03 C26.017,26.947 26.135,26.883 26.274,26.839 C26.411,26.795 26.564,26.773 26.731,26.773 C26.853,26.773 26.965,26.781 27.069,26.796 C27.171,26.812 27.262,26.831 27.339,26.852 L27.339,26.739 C27.339,26.673 27.328,26.609 27.306,26.549 C27.283,26.487 27.248,26.433 27.198,26.386 C27.148,26.338 27.084,26.301 27.004,26.272 C26.925,26.245 26.827,26.231 26.713,26.231 C26.574,26.231 26.434,26.245 26.294,26.276 C26.154,26.307 26.002,26.354 25.839,26.416 L25.839,25.877 C25.982,25.815 26.132,25.768 26.291,25.735 C26.451,25.701 26.617,25.684 26.792,25.682 C26.997,25.682 27.178,25.707 27.332,25.758 C27.486,25.808 27.617,25.878 27.72,25.966 C27.824,26.055 27.903,26.159 27.954,26.279 C28.005,26.4 28.031,26.531 28.031,26.672 L28.031,27.736 C28.031,27.923 28.033,28.082 28.037,28.217 C28.041,28.35 28.045,28.469 28.049,28.574 L27.426,28.574 L27.396,28.274 Z M24.286,26.855 C24.286,26.794 24.284,26.739 24.28,26.686 C24.276,26.633 24.269,26.588 24.26,26.549 C24.238,26.463 24.196,26.395 24.135,26.342 C24.072,26.289 23.984,26.262 23.872,26.26 C23.812,26.26 23.75,26.27 23.685,26.286 C23.622,26.304 23.558,26.329 23.495,26.361 C23.432,26.394 23.371,26.433 23.315,26.478 C23.257,26.524 23.205,26.575 23.158,26.631 L23.158,28.574 L22.467,28.574 L22.467,26.855 C22.467,26.794 22.465,26.739 22.461,26.686 C22.457,26.633 22.45,26.588 22.441,26.549 C22.419,26.463 22.378,26.395 22.317,26.342 C22.256,26.289 22.167,26.262 22.053,26.26 C21.993,26.26 21.931,26.27 21.867,26.286 C21.803,26.304 21.739,26.329 21.676,26.361 C21.613,26.394 21.552,26.433 21.496,26.478 C21.438,26.524 21.386,26.575 21.339,26.631 L21.339,28.574 L20.648,28.574 L20.648,25.754 L21.22,25.754 L21.284,26.145 L21.296,26.145 C21.337,26.087 21.388,26.03 21.45,25.973 C21.513,25.917 21.583,25.868 21.661,25.825 C21.74,25.782 21.827,25.748 21.921,25.722 C22.016,25.695 22.115,25.682 22.22,25.682 C22.406,25.682 22.574,25.724 22.723,25.806 C22.871,25.889 22.985,26.017 23.062,26.192 L23.074,26.192 C23.129,26.117 23.189,26.047 23.256,25.985 C23.324,25.923 23.398,25.87 23.48,25.825 C23.561,25.78 23.649,25.746 23.743,25.72 C23.837,25.695 23.938,25.682 24.045,25.682 C24.247,25.684 24.417,25.726 24.553,25.808 C24.69,25.891 24.796,26.004 24.87,26.148 C24.889,26.185 24.906,26.226 24.919,26.268 C24.933,26.312 24.944,26.362 24.953,26.416 C24.962,26.47 24.968,26.531 24.971,26.596 C24.975,26.663 24.977,26.739 24.977,26.824 L24.977,28.574 L24.286,28.574 L24.286,26.855 Z M18.884,28.57 C18.806,28.593 18.714,28.612 18.606,28.626 C18.498,28.639 18.397,28.646 18.304,28.646 C18.068,28.646 17.874,28.607 17.723,28.531 C17.571,28.454 17.465,28.344 17.404,28.201 C17.359,28.097 17.336,27.958 17.336,27.781 L17.336,26.32 L16.809,26.32 L16.809,25.754 L17.336,25.754 L17.336,24.967 L18.028,24.967 L18.028,25.754 L18.843,25.754 L18.843,26.32 L18.028,26.32 L18.028,27.692 C18.028,27.8 18.044,27.881 18.077,27.933 C18.135,28.023 18.251,28.068 18.423,28.068 C18.504,28.068 18.582,28.062 18.661,28.049 C18.74,28.036 18.814,28.02 18.884,28.001 L18.884,28.57 Z M15.882,27.755 C15.882,27.695 15.865,27.645 15.831,27.606 C15.797,27.568 15.752,27.536 15.695,27.509 C15.639,27.483 15.575,27.46 15.502,27.44 C15.428,27.422 15.353,27.402 15.273,27.383 C15.172,27.355 15.075,27.324 14.982,27.287 C14.889,27.251 14.806,27.205 14.736,27.146 C14.665,27.089 14.608,27.015 14.567,26.926 C14.525,26.838 14.504,26.731 14.504,26.602 C14.504,26.445 14.532,26.308 14.589,26.193 C14.645,26.078 14.722,25.982 14.817,25.907 C14.914,25.83 15.026,25.774 15.153,25.738 C15.28,25.701 15.415,25.682 15.557,25.682 C15.73,25.682 15.892,25.696 16.043,25.724 C16.194,25.752 16.331,25.788 16.453,25.832 L16.453,26.392 C16.39,26.371 16.322,26.352 16.251,26.334 C16.18,26.316 16.108,26.3 16.036,26.287 C15.962,26.274 15.891,26.264 15.818,26.256 C15.747,26.247 15.679,26.243 15.614,26.243 C15.533,26.243 15.464,26.251 15.408,26.266 C15.352,26.281 15.306,26.302 15.271,26.328 C15.236,26.354 15.211,26.384 15.195,26.418 C15.18,26.451 15.172,26.487 15.172,26.524 C15.172,26.588 15.189,26.64 15.223,26.681 C15.256,26.722 15.304,26.755 15.364,26.779 C15.424,26.805 15.487,26.826 15.553,26.842 C15.618,26.859 15.683,26.875 15.745,26.891 C15.842,26.914 15.938,26.941 16.036,26.975 C16.132,27.008 16.22,27.054 16.297,27.113 C16.375,27.172 16.438,27.248 16.487,27.343 C16.537,27.437 16.562,27.557 16.562,27.703 C16.562,27.862 16.532,28.001 16.471,28.119 C16.411,28.238 16.328,28.336 16.221,28.415 C16.112,28.493 15.984,28.552 15.833,28.589 C15.683,28.627 15.518,28.646 15.337,28.646 C15.158,28.646 14.998,28.632 14.855,28.604 C14.713,28.576 14.594,28.541 14.501,28.498 L14.501,27.942 C14.653,27.998 14.792,28.036 14.92,28.056 C15.049,28.076 15.168,28.085 15.279,28.085 C15.364,28.085 15.444,28.079 15.518,28.066 C15.591,28.054 15.655,28.035 15.709,28.007 C15.762,27.98 15.804,27.946 15.835,27.905 C15.866,27.863 15.882,27.813 15.882,27.755 L15.882,27.755 Z M12.632,28.646 C12.348,28.646 12.112,28.598 11.927,28.502 C11.74,28.406 11.598,28.276 11.504,28.113 C11.453,28.026 11.416,27.93 11.392,27.825 C11.367,27.721 11.355,27.604 11.355,27.476 L11.355,25.754 L12.047,25.754 L12.047,27.402 C12.047,27.497 12.054,27.579 12.067,27.648 C12.081,27.717 12.102,27.776 12.128,27.827 C12.175,27.911 12.241,27.975 12.326,28.017 C12.412,28.059 12.513,28.079 12.632,28.079 C12.756,28.079 12.862,28.057 12.949,28.01 C13.038,27.963 13.105,27.893 13.149,27.797 C13.194,27.707 13.216,27.579 13.216,27.417 L13.216,25.754 L13.908,25.754 L13.908,27.476 C13.908,27.705 13.868,27.899 13.788,28.056 C13.743,28.144 13.686,28.225 13.615,28.298 C13.544,28.371 13.46,28.433 13.364,28.484 C13.268,28.536 13.159,28.576 13.038,28.604 C12.917,28.632 12.781,28.646 12.632,28.646 L12.632,28.646 Z M9.902,25.103 L10.63,25.103 L10.63,24.358 L9.902,24.358 L9.902,25.103 Z M10.611,28.943 C10.611,29.208 10.57,29.411 10.486,29.555 C10.399,29.706 10.27,29.818 10.101,29.891 C9.932,29.963 9.732,30 9.5,30 C9.398,30 9.304,29.994 9.222,29.982 C9.139,29.971 9.062,29.954 8.988,29.932 L8.988,29.367 C9.05,29.384 9.12,29.4 9.196,29.412 C9.273,29.426 9.346,29.433 9.416,29.433 C9.509,29.433 9.591,29.422 9.661,29.402 C9.731,29.38 9.787,29.343 9.829,29.291 C9.862,29.253 9.886,29.199 9.9,29.131 C9.913,29.063 9.92,28.981 9.92,28.887 L9.92,25.754 L10.611,25.754 L10.611,28.943 Z M6.708,26.219 C6.621,26.219 6.543,26.235 6.475,26.266 C6.407,26.299 6.348,26.342 6.299,26.398 C6.249,26.453 6.21,26.518 6.182,26.592 C6.152,26.665 6.133,26.743 6.123,26.827 L7.232,26.827 C7.232,26.743 7.221,26.665 7.198,26.592 C7.176,26.518 7.144,26.453 7.1,26.398 C7.056,26.342 7.002,26.299 6.937,26.266 C6.872,26.235 6.796,26.219 6.708,26.219 L6.708,26.219 Z M6.985,28.091 C7.119,28.091 7.259,28.078 7.404,28.052 C7.55,28.025 7.697,27.986 7.847,27.936 L7.847,28.484 C7.758,28.523 7.621,28.56 7.436,28.594 C7.252,28.629 7.06,28.646 6.862,28.646 C6.663,28.646 6.473,28.62 6.293,28.568 C6.114,28.518 5.957,28.434 5.822,28.32 C5.687,28.206 5.581,28.057 5.502,27.875 C5.423,27.692 5.383,27.471 5.383,27.211 C5.383,26.954 5.42,26.731 5.495,26.538 C5.568,26.346 5.668,26.187 5.792,26.061 C5.916,25.934 6.058,25.84 6.219,25.776 C6.379,25.714 6.545,25.682 6.716,25.682 C6.895,25.682 7.06,25.709 7.211,25.764 C7.361,25.817 7.492,25.903 7.602,26.019 C7.712,26.135 7.798,26.284 7.858,26.467 C7.92,26.651 7.951,26.867 7.951,27.117 C7.949,27.214 7.946,27.296 7.942,27.364 L6.091,27.364 C6.101,27.495 6.13,27.606 6.179,27.7 C6.227,27.792 6.29,27.868 6.369,27.926 C6.448,27.983 6.539,28.026 6.644,28.052 C6.749,28.078 6.862,28.091 6.985,28.091 L6.985,28.091 Z M2.647,25.705 C2.571,26.068 2.484,26.443 2.385,26.828 L1.948,28.574 L1.238,28.574 L0,24.68 L0.759,24.68 L1.229,26.232 C1.37,26.719 1.485,27.159 1.572,27.553 L1.589,27.553 C1.675,27.13 1.774,26.696 1.887,26.251 L2.288,24.68 L3.023,24.68 L3.424,26.251 C3.536,26.692 3.636,27.126 3.721,27.553 L3.738,27.553 C3.846,27.088 3.96,26.647 4.082,26.232 L4.551,24.68 L5.311,24.68 L4.073,28.574 L3.363,28.574 L2.926,26.828 C2.827,26.435 2.739,26.06 2.664,25.705 L2.647,25.705 Z" id="Fill-3"></path>
                <path d="M56.4043,13.3997 C55.6153,13.3997 54.9523,13.6757 54.4163,14.2257 C53.8783,14.7757 53.6093,15.4757 53.6093,16.3257 C53.6093,17.2717 53.9473,18.0197 54.6243,18.5707 C55.1513,19.0017 55.7533,19.2157 56.4343,19.2157 C57.2033,19.2157 57.8583,18.9357 58.3993,18.3777 C58.9413,17.8197 59.2113,17.1317 59.2113,16.3137 C59.2113,15.4997 58.9393,14.8107 58.3933,14.2457 C57.8483,13.6817 57.1853,13.3997 56.4043,13.3997 L56.4043,13.3997 Z M56.4283,11.8027 C57.6383,11.8027 58.6793,12.2417 59.5493,13.1177 C60.4213,13.9937 60.8563,15.0627 60.8563,16.3217 C60.8563,17.5707 60.4263,18.6277 59.5663,19.4917 C58.7083,20.3557 57.6663,20.7887 56.4403,20.7887 C55.1553,20.7887 54.0883,20.3447 53.2403,19.4567 C52.3903,18.5687 51.9643,17.5137 51.9643,16.2917 C51.9643,15.4757 52.1633,14.7227 52.5593,14.0357 C52.9543,13.3497 53.4983,12.8057 54.1893,12.4047 C54.8823,12.0037 55.6293,11.8027 56.4283,11.8027 L56.4283,11.8027 Z M46.8113,12.0177 L51.5423,12.0177 L51.5423,13.6267 L49.9813,13.6267 L49.9813,20.5747 L48.3243,20.5747 L48.3243,13.6267 L46.8113,13.6267 L46.8113,12.0177 Z M40.2123,12.0177 L41.8453,12.0177 L41.8453,17.5537 C41.8453,18.0297 41.8873,18.3677 41.9703,18.5647 C42.0543,18.7627 42.1913,18.9197 42.3843,19.0397 C42.5763,19.1567 42.8093,19.2157 43.0793,19.2157 C43.3673,19.2157 43.6133,19.1507 43.8223,19.0167 C44.0303,18.8857 44.1733,18.7187 44.2533,18.5147 C44.3323,18.3117 44.3723,17.9227 44.3723,17.3487 L44.3723,12.0177 L46.0053,12.0177 L46.0053,17.1177 C46.0053,17.9807 45.9573,18.5767 45.8603,18.9097 C45.7633,19.2437 45.5783,19.5657 45.3043,19.8757 C45.0313,20.1857 44.7153,20.4157 44.3583,20.5647 C44.0033,20.7137 43.5873,20.7887 43.1143,20.7887 C42.4953,20.7887 41.9543,20.6457 41.4963,20.3617 C41.0353,20.0757 40.7073,19.7207 40.5093,19.2917 C40.3123,18.8627 40.2123,18.1397 40.2123,17.1177 L40.2123,12.0177 Z M35.1523,14.2917 L33.9923,17.2377 L36.3063,17.2377 L35.1523,14.2917 Z M34.3303,12.0177 L35.9703,12.0177 L39.2633,20.5747 L37.5693,20.5747 L36.9023,18.8107 L33.3943,18.8107 L32.7103,20.5747 L31.0163,20.5747 L34.3303,12.0177 Z M56.5633,0.5457 L61.2953,0.5457 L61.2953,2.1547 L59.7333,2.1547 L59.7333,9.1037 L58.0773,9.1037 L58.0773,2.1547 L56.5633,2.1547 L56.5633,0.5457 Z M51.4693,0.5457 L56.1413,0.5457 L56.1413,2.1427 L53.0903,2.1427 L53.0903,3.6807 L56.1413,3.6807 L56.1413,5.2537 L53.0903,5.2537 L53.0903,7.5057 L56.1413,7.5057 L56.1413,9.1037 L51.4693,9.1037 L51.4693,0.5457 Z M44.3343,0.5457 L45.9793,0.5457 L45.9793,3.5057 L48.2953,0.5457 L50.2603,0.5457 L47.2703,4.3657 L50.5503,9.1037 L48.6173,9.1037 L45.9793,5.2907 L45.9793,9.1037 L44.3343,9.1037 L44.3343,0.5457 Z M42.8753,1.7097 L41.6673,2.7747 C41.2443,2.1867 40.8133,1.8927 40.3743,1.8927 C40.1603,1.8927 39.9853,1.9497 39.8503,2.0637 C39.7133,2.1787 39.6453,2.3077 39.6453,2.4507 C39.6453,2.5937 39.6933,2.7307 39.7903,2.8577 C39.9233,3.0287 40.3223,3.3947 40.9883,3.9567 C41.6103,4.4767 41.9873,4.8047 42.1203,4.9397 C42.4503,5.2737 42.6843,5.5907 42.8233,5.8947 C42.9603,6.2007 43.0303,6.5327 43.0303,6.8917 C43.0303,7.5957 42.7873,8.1737 42.3013,8.6327 C41.8163,9.0887 41.1833,9.3177 40.4003,9.3177 C39.7903,9.3177 39.2593,9.1687 38.8073,8.8707 C38.3543,8.5707 37.9643,8.1017 37.6433,7.4627 L39.0153,6.6357 C39.4293,7.3907 39.9033,7.7677 40.4403,7.7677 C40.7203,7.7677 40.9563,7.6867 41.1473,7.5237 C41.3373,7.3607 41.4333,7.1727 41.4333,6.9597 C41.4333,6.7667 41.3613,6.5727 41.2163,6.3777 C41.0733,6.1847 40.7553,5.8867 40.2653,5.4877 C39.3313,4.7287 38.7293,4.1427 38.4573,3.7297 C38.1853,3.3167 38.0483,2.9057 38.0483,2.4947 C38.0483,1.9007 38.2743,1.3917 38.7253,0.9687 C39.1783,0.5437 39.7363,0.3317 40.4003,0.3317 C40.8273,0.3317 41.2343,0.4307 41.6193,0.6267 C42.0073,0.8257 42.4243,1.1847 42.8753,1.7097 L42.8753,1.7097 Z M33.2613,2.8207 L32.1013,5.7657 L34.4153,5.7657 L33.2613,2.8207 Z M32.4393,0.5457 L34.0803,0.5457 L37.3733,9.1037 L35.6793,9.1037 L35.0113,7.3397 L31.5033,7.3397 L30.8203,9.1037 L29.1263,9.1037 L32.4393,0.5457 Z" id="Fill-5"></path>
            </g>
        </g>
    </g>
</svg>