<?xml version="1.0" encoding="UTF-8" standalone="no"?>
<svg width="66px" height="66px" viewBox="0 0 66 66" version="1.1" xmlns="http://www.w3.org/2000/svg" xmlns:xlink="http://www.w3.org/1999/xlink">
    <!-- Generator: Sketch 3.7.2 (28276) - http://www.bohemiancoding.com/sketch -->
    <title>play</title>
    <desc>Created with Sketch.</desc>
    <defs></defs>
    <g id="Page-1" stroke="none" stroke-width="1" fill="none" fill-rule="evenodd">
        <g id="play" fill="#FEFEFE">
            <path d="M33,0 C14.775,0 0,14.775 0,33 C0,51.225 14.775,66 33,66 C51.225,66 66,51.225 66,33 C66,14.775 51.225,0 33,0 M33,5 C48.439,5 61,17.561 61,33 C61,48.439 48.439,61 33,61 C17.561,61 5,48.439 5,33 C5,17.561 17.561,5 33,5 Z M49.0019,32.9951 L25.9999,45.9961 L25.9999,19.9941 L49.0019,32.9951 Z" id="Combined-Shape"></path>
        </g>
    </g>
</svg>