<?xml version="1.0" encoding="UTF-8" standalone="no"?>
<svg width="27px" height="27px" viewBox="0 0 27 27" version="1.1" xmlns="http://www.w3.org/2000/svg" xmlns:xlink="http://www.w3.org/1999/xlink">
    <!-- Generator: Sketch 3.7.2 (28276) - http://www.bohemiancoding.com/sketch -->
    <title>radia</title>
    <desc>Created with Sketch.</desc>
    <defs>
        <polygon id="path-1" points="26.9606355 27.015582 26.9606355 6.53074738e-05 1.70989829e-21 6.53074738e-05 0 27.015582 26.9606355 27.015582"></polygon>
    </defs>
    <g id="Page-1" stroke="none" stroke-width="1" fill="none" fill-rule="evenodd">
        <g id="radia">
            <mask id="mask-2" fill="white">
                <use xlink:href="#path-1"></use>
            </mask>
            <g id="Clip-2"></g>
            <path d="M24.2872318,23.4484402 C23.1600449,21.8246551 17.9074093,14.143029 17.9074093,14.143029 C19.4514561,13.547515 20.663428,12.6597953 21.5440822,11.4813841 C22.4242318,10.3029729 22.8648112,8.99637477 22.8648112,7.5600757 C22.8648112,6.47704766 22.6543626,5.48763645 22.2349794,4.59386075 C21.8145869,3.69983271 21.2049421,2.92768318 20.4065495,2.27766449 C19.6071477,1.62739346 18.6386804,1.12650561 17.500643,0.773991589 C13.7097925,-0.400129907 8.31357757,0.27512243 4.37082056,0.259225234 C3.0778486,0.254178505 2.15883925,0.227683178 0.936521495,0.0581130841 C0.744493458,0.0313654206 0.381381308,-0.0857186916 0.17951215,0.116150467 C-0.0700485981,0.365963551 -0.0385065421,0.602907477 0.145951402,0.878963551 C0.648857944,1.63269252 1.0071757,2.16058037 1.50326916,2.90951495 C2.01298879,3.67914112 2.91408224,3.80808505 3.75411028,3.86637477 C4.89492336,3.94535607 6.03548411,3.9448514 7.17831589,3.92239346 C7.85205421,3.90901963 8.52503551,3.88277664 9.19801682,3.85249626 C10.7304561,3.7828514 12.2838393,3.69529065 13.8071944,3.92870187 C15.828914,4.23806636 17.5077084,5.54592617 17.3303159,7.75033738 C17.2197925,9.1177486 16.7009888,10.3741318 15.5508393,11.1556178 C14.097886,12.1427579 12.3252224,12.1826271 10.6335589,12.1826271 C9.66433458,12.1826271 9.60831589,12.145786 8.57323178,12.0395523 C8.33376449,12.0148234 8.10514766,12.0715991 8.0216243,12.3045056 C7.91968037,12.5893935 7.99967103,12.6726645 8.2002785,12.9651224 C8.37085794,13.2136738 9.24394206,14.524814 9.50763364,14.9093748 C9.74382056,15.2535617 10.1730449,15.4054682 10.5530636,15.5177579 C12.909129,16.2152159 14.3042972,17.7776832 15.6164467,19.7721505 C16.284886,20.788057 16.9182505,21.8264215 17.6096523,22.8269355 C17.9926991,23.380814 18.3929047,23.923085 18.8241477,24.4401224 C19.824914,25.6397299 21.1418579,26.1772065 22.6155028,26.5736271 C23.7934093,26.8905617 25.0911757,26.9922533 26.1295402,27.0149636 C27.2201383,27.0391879 27.060914,26.345515 26.6470822,26.0326178 C25.7041009,25.3197673 25.0699794,24.5766364 24.2872318,23.4484402" id="Fill-1" fill="#FEFEFE" mask="url(#mask-2)"></path>
        </g>
    </g>
</svg>