<?xml version="1.0" encoding="UTF-8" standalone="no"?>
<svg width="88px" height="88px" viewBox="0 0 88 88" version="1.1" xmlns="http://www.w3.org/2000/svg" xmlns:xlink="http://www.w3.org/1999/xlink">
    <!-- Generator: Sketch 3.7.2 (28276) - http://www.bohemiancoding.com/sketch -->
    <title>zoom</title>
    <desc>Created with Sketch.</desc>
    <defs></defs>
    <g id="Page-1" stroke="none" stroke-width="1" fill="none" fill-rule="evenodd">
        <g id="zoom" fill="#FFFFFF">
            <path d="M36,64 C20.536,64 8,51.464 8,36 C8,20.536 20.536,8 36,8 C51.464,8 64,20.536 64,36 C64,51.464 51.464,64 36,64 M86.829,81.171 L64.121,58.464 C69.047,52.307 72,44.5 72,36 C72,16.118 55.882,0 36,0 C16.118,0 0,16.118 0,36 C0,55.882 16.118,72 36,72 C44.5,72 52.306,69.047 58.464,64.121 L81.172,86.829 C82.734,88.391 85.267,88.391 86.829,86.829 C88.391,85.267 88.391,82.733 86.829,81.171 Z M48,32 L40,32 L40,24 C40,21.791 38.209,20 36,20 C33.791,20 32,21.791 32,24 L32,32 L24,32 C21.791,32 20,33.791 20,36 C20,38.209 21.791,40 24,40 L32,40 L32,48 C32,50.209 33.791,52 36,52 C38.209,52 40,50.209 40,48 L40,40 L48,40 C50.209,40 52,38.209 52,36 C52,33.791 50.209,32 48,32 Z" id="Combined-Shape"></path>
        </g>
    </g>
</svg>